<svg width="16" height="17" viewBox="0 0 16 17" fill="none" xmlns="http://www.w3.org/2000/svg">
<g id="BookmarkSimple">
<path id="Vector" d="M11.5 2.59998H4.5C4.23478 2.59998 3.98043 2.70533 3.79289 2.89287C3.60536 3.08041 3.5 3.33476 3.5 3.59998V14.6C3.50004 14.6892 3.52397 14.7768 3.56929 14.8537C3.6146 14.9305 3.67967 14.9939 3.75772 15.0371C3.83578 15.0803 3.92399 15.1019 4.01319 15.0996C4.10239 15.0972 4.18933 15.071 4.265 15.0237L8 12.6894L11.7356 15.0237C11.8113 15.0709 11.8982 15.0969 11.9873 15.0992C12.0764 15.1014 12.1645 15.0799 12.2424 15.0366C12.3204 14.9934 12.3854 14.9301 12.4307 14.8534C12.4759 14.7766 12.4999 14.6891 12.5 14.6V3.59998C12.5 3.33476 12.3946 3.08041 12.2071 2.89287C12.0196 2.70533 11.7652 2.59998 11.5 2.59998Z" fill="black"/>
</g>
</svg>
